<?xml version="1.0" encoding="iso-8859-1"?>
<!-- Uploaded to: SVG Repo, www.svgrepo.com, Generator: SVG Repo Mixer Tools -->
<svg height="800px" width="800px" version="1.1" id="Layer_1" xmlns="http://www.w3.org/2000/svg" xmlns:xlink="http://www.w3.org/1999/xlink" 
	 viewBox="0 0 511.979 511.979" xml:space="preserve">
<path style="fill:#E6E9ED;" d="M255.989,0c-35.318,0-63.958,28.639-63.958,63.95c0,0.016,0,0.016,0,0.031v74.591
	c0,5.875,4.773,10.655,10.664,10.655h106.59c5.89,0,10.671-4.78,10.671-10.655V63.95C319.956,28.638,291.301,0,255.989,0z"/>
<path style="fill:#AC92EB;" d="M372.859,145.338c-0.609-1.641-6.546-16.438-24.077-31.171
	c-15.859-13.344-44.825-29.234-92.793-29.234c-47.966,0-76.935,15.89-92.793,29.233c-17.53,14.733-23.46,29.53-24.085,31.171
	c-0.469,1.233-0.711,2.562-0.711,3.89v341.095c0,11.938,8.922,21.656,19.882,21.656h195.422c10.953,0,19.874-9.719,19.874-21.656
	V149.227C373.578,147.899,373.328,146.571,372.859,145.338z"/>
<g>
	<path style="opacity:0.2;fill:#FFFFFF;enable-background:new    ;" d="M372.859,145.338c-0.609-1.641-6.546-16.438-24.077-31.171
		c-15.859-13.344-44.825-29.234-92.793-29.234c-1.812,0-3.602,0.031-5.358,0.078c44.811,1.109,72.231,16.312,87.479,29.155
		c17.531,14.733,23.469,29.53,24.094,31.171c0.469,1.233,0.719,2.562,0.719,3.89v341.095c0,11.938-8.922,21.656-19.875,21.656
		h10.656c10.953,0,19.874-9.719,19.874-21.656V149.227C373.578,147.899,373.328,146.571,372.859,145.338z"/>
	<path style="opacity:0.2;fill:#FFFFFF;enable-background:new    ;" d="M139.111,145.338c0.625-1.641,6.555-16.438,24.085-31.171
		c15.858-13.344,44.827-29.233,92.793-29.233c1.812,0,3.602,0.031,5.359,0.078c-44.811,1.109-72.231,16.312-87.489,29.155
		c-17.53,14.733-23.467,29.53-24.084,31.171c-0.469,1.233-0.711,2.562-0.711,3.89v341.095c0,11.938,8.913,21.656,19.873,21.656
		h-10.655c-10.96,0-19.882-9.719-19.882-21.656V149.227C138.4,147.899,138.642,146.571,139.111,145.338z"/>
</g>
<path style="fill:#E6E9ED;" d="M330.392,223.834H181.586c-5.891,0-10.664,4.781-10.664,10.671v170.54
	c0,5.891,4.773,10.656,10.664,10.656h148.807c5.89,0,10.655-4.766,10.655-10.656v-170.54
	C341.048,228.615,336.282,223.834,330.392,223.834z"/>
<g>
	<path style="fill:#AC92EB;" d="M255.989,373.062c-17.632,0-31.976-14.344-31.976-31.968c0-17.641,14.344-31.982,31.976-31.982
		c17.624,0,31.968,14.342,31.968,31.982C287.957,358.718,273.613,373.062,255.989,373.062z"/>
	<path style="fill:#AC92EB;" d="M266.645,287.8c0,5.875-4.766,10.656-10.656,10.656s-10.655-4.781-10.655-10.656
		c0-5.89,4.766-10.671,10.655-10.671C261.88,277.129,266.645,281.91,266.645,287.8z"/>
	<path style="fill:#AC92EB;" d="M233.373,292.753c4.164,4.156,4.164,10.906,0,15.062c-4.164,4.172-10.913,4.172-15.077,0
		c-4.164-4.156-4.164-10.906,0-15.062C222.46,288.581,229.209,288.581,233.373,292.753z"/>
	<path style="fill:#AC92EB;" d="M278.613,292.753c4.156-4.172,10.906-4.172,15.062,0c4.172,4.156,4.172,10.906,0,15.078
		c-4.156,4.156-10.906,4.156-15.062,0C274.441,303.659,274.441,296.909,278.613,292.753z"/>
</g>
<g>
	<path style="fill:#967ADC;" d="M319.956,181.195H192.031c-5.883,0-10.656-4.766-10.656-10.656s4.773-10.655,10.656-10.655h127.925
		c5.874,0,10.654,4.766,10.654,10.655C330.61,176.429,325.83,181.195,319.956,181.195z"/>
	<path style="fill:#967ADC;" d="M330.61,511.635v-10.656c0-5.891-4.78-10.656-10.654-10.656c-5.906,0-10.671,4.766-10.671,10.656
		v10.656c0,0.125,0.016,0.234,0.016,0.344h21.278C330.594,511.869,330.61,511.76,330.61,511.635z"/>
	<path style="fill:#967ADC;" d="M287.957,511.635v-10.656c0-5.891-4.766-10.656-10.656-10.656c-5.883,0-10.655,4.766-10.655,10.656
		v10.656c0,0.125,0.016,0.234,0.023,0.344h21.288C287.957,511.869,287.957,511.76,287.957,511.635z"/>
	<path style="fill:#967ADC;" d="M245.334,511.635v-10.656c0-5.891-4.773-10.656-10.664-10.656c-5.883,0-10.656,4.766-10.656,10.656
		v10.656c0,0.125,0.008,0.234,0.016,0.344h21.281C245.318,511.869,245.334,511.76,245.334,511.635z"/>
	<path style="fill:#967ADC;" d="M202.695,511.635v-10.656c0-5.891-4.773-10.656-10.664-10.656c-5.883,0-10.656,4.766-10.656,10.656
		v10.656c0,0.125,0.016,0.234,0.016,0.344h21.289C202.679,511.869,202.695,511.76,202.695,511.635z"/>
</g>
</svg>